<?xml version="1.0" encoding="UTF-8" standalone="no"?><!DOCTYPE svg PUBLIC "-//W3C//DTD SVG 1.1//EN" "http://www.w3.org/Graphics/SVG/1.1/DTD/svg11.dtd"><svg width="1191px" height="558px" version="1.1" xmlns="http://www.w3.org/2000/svg" xmlns:xlink="http://www.w3.org/1999/xlink" xml:space="preserve" xmlns:serif="http://www.serif.com/" style="fill-rule:evenodd;clip-rule:evenodd;stroke-linejoin:round;stroke-miterlimit:2;"><g transform="matrix(0.75,0,0,0.75,-9.39585,0)"><g id="Artboard1" transform="matrix(0.661326,0,0,0.464712,12.5278,0)"><rect x="0" y="0" width="2400" height="1600" style="fill:none;"/><g transform="matrix(1.51211,0,0,2.15187,672.04,-112.752)"><path d="M-235.41,331.014L-299.884,202.603L-302.212,245.765C-302.928,258.301 -303.555,270.748 -304.092,283.106C-304.63,295.463 -305.615,307.224 -307.047,318.387C-308.48,329.551 -310.719,339.909 -313.763,349.46C-316.808,359.012 -321.226,367.28 -327.016,374.265C-332.807,381.249 -340.329,386.712 -349.582,390.652C-358.835,394.592 -370.387,396.562 -384.237,396.562C-390.326,396.562 -396.177,396.055 -401.788,395.04C-407.4,394.025 -412.355,392.622 -416.653,390.831C-420.951,389.04 -424.384,386.921 -426.951,384.473C-429.518,382.026 -430.801,379.369 -430.801,376.503C-430.801,374.354 -430.503,372.175 -429.906,369.967C-429.309,367.758 -428.414,365.728 -427.22,363.877C-426.026,362.027 -424.563,360.534 -422.832,359.4C-421.101,358.266 -419.16,357.699 -417.011,357.699C-415.698,357.699 -414.534,358.355 -413.519,359.669C-412.504,360.982 -411.459,362.624 -410.385,364.594C-409.31,366.564 -408.086,368.683 -406.713,370.952C-405.34,373.22 -403.549,375.339 -401.34,377.309C-399.132,379.279 -396.475,380.921 -393.371,382.235C-390.266,383.548 -386.386,384.205 -381.73,384.205C-372.536,384.205 -364.805,382.623 -358.537,379.459C-352.269,376.295 -347.105,371.728 -343.045,365.758C-338.986,359.788 -335.882,352.565 -333.732,344.087C-331.583,335.61 -329.971,325.999 -328.897,315.253C-328.419,309.284 -327.942,303.523 -327.464,297.971C-326.987,292.419 -326.509,286.897 -326.031,281.405C-325.554,275.912 -325.106,270.331 -324.688,264.659C-324.27,258.988 -323.823,252.988 -323.345,246.66C-322.748,237.467 -322.211,228.721 -321.733,220.423C-321.256,212.125 -320.868,204.394 -320.569,197.23C-320.271,190.067 -320.032,183.619 -319.853,177.888C-319.674,172.157 -319.524,167.202 -319.405,163.023C-321.435,158.844 -323.226,155.472 -324.778,152.905C-326.33,150.338 -327.942,148.367 -329.613,146.994C-331.285,145.621 -333.135,144.696 -335.165,144.218C-337.195,143.741 -339.643,143.502 -342.508,143.502C-344.896,143.502 -347.851,143.95 -351.373,144.845C-354.895,145.741 -358.537,147.024 -362.298,148.696C-366.059,150.367 -369.82,152.427 -373.581,154.875C-377.342,157.322 -380.685,160.128 -383.61,163.292C-386.535,166.456 -388.923,169.948 -390.774,173.769C-392.625,177.59 -393.55,181.709 -393.55,186.126C-393.55,189.947 -393.042,192.992 -392.028,195.26C-391.013,197.529 -389.819,199.23 -388.446,200.364C-387.073,201.499 -385.7,202.215 -384.327,202.514C-382.953,202.812 -381.968,202.961 -381.371,202.961C-378.387,202.961 -375.939,202.454 -374.029,201.439C-372.118,200.424 -370.387,199.35 -368.835,198.215C-367.283,197.081 -365.82,196.007 -364.447,194.992C-363.074,193.977 -361.492,193.469 -359.701,193.469C-358.268,193.469 -356.746,193.798 -355.134,194.454C-353.522,195.111 -352.03,196.156 -350.657,197.589C-349.284,199.021 -348.12,200.902 -347.165,203.23C-346.209,205.558 -345.732,208.394 -345.732,211.737C-345.732,216.513 -346.657,220.632 -348.508,224.094C-350.358,227.557 -352.746,230.452 -355.671,232.78C-358.597,235.109 -361.94,236.84 -365.701,237.974C-369.462,239.108 -373.193,239.676 -376.894,239.676C-382.625,239.676 -387.789,238.691 -392.386,236.721C-396.983,234.751 -400.893,232.034 -404.116,228.572C-407.34,225.109 -409.788,221.05 -411.459,216.393C-413.131,211.737 -413.967,206.782 -413.967,201.529C-413.967,189.111 -411.101,178.276 -405.37,169.023C-399.639,159.77 -392.117,152.039 -382.804,145.83C-373.491,139.622 -362.955,134.995 -351.194,131.951C-339.434,128.906 -327.464,127.384 -315.286,127.384C-305.495,127.384 -297.317,128.369 -290.75,130.339C-284.183,132.309 -278.691,134.935 -274.273,138.219C-269.856,141.502 -266.214,145.353 -263.348,149.77C-260.483,154.188 -257.856,158.844 -255.468,163.74L-208.188,259.734C-195.89,235.497 -184.696,213.797 -174.607,194.633C-164.518,175.47 -155.176,158.606 -146.579,144.039C-137.983,129.473 -129.953,117.056 -122.491,106.788C-115.029,96.52 -107.805,88.132 -100.821,81.625C-93.836,75.118 -86.911,70.372 -80.046,67.387C-73.18,64.402 -66.047,62.91 -58.644,62.91C-52.316,62.91 -47.182,64.253 -43.242,66.939C-39.302,69.626 -37.332,73.655 -37.332,79.028C-37.332,83.804 -38.108,87.744 -39.66,90.848C-41.212,93.953 -43.361,95.505 -46.107,95.505C-48.376,95.505 -50.107,94.639 -51.301,92.908C-52.495,91.177 -53.659,89.296 -54.793,87.267C-55.928,85.237 -57.331,83.356 -59.002,81.625C-60.674,79.894 -63.121,79.028 -66.345,79.028C-68.255,79.028 -70.584,79.565 -73.33,80.64C-76.076,81.715 -78.911,83.326 -81.837,85.476C-84.762,87.625 -87.657,90.311 -90.523,93.535C-93.388,96.759 -95.896,100.52 -98.045,104.818C-100.194,109.116 -101.865,114.011 -103.059,119.503C-104.253,124.996 -104.611,131.025 -104.134,137.592C-103.656,145.114 -103,153.919 -102.164,164.008C-101.328,174.097 -100.403,184.903 -99.388,196.424C-98.373,207.946 -97.298,219.856 -96.164,232.154C-95.03,244.451 -93.866,256.57 -92.672,268.51C-91.478,280.449 -90.314,291.911 -89.179,302.896C-88.045,313.88 -87.001,323.82 -86.045,332.715C-85.09,341.61 -84.195,349.132 -83.359,355.281C-82.523,361.43 -81.866,365.638 -81.389,367.907C-80.673,371.369 -79.717,374.145 -78.523,376.235C-77.329,378.324 -75.18,379.369 -72.076,379.369C-68.852,379.369 -65.808,378.802 -62.942,377.668C-60.077,376.533 -57.51,375.369 -55.241,374.175L-52.376,380.802C-54.525,382.354 -57.241,384.115 -60.524,386.085C-63.808,388.055 -67.569,389.936 -71.807,391.726C-76.046,393.517 -80.702,395.01 -85.777,396.204C-90.851,397.398 -96.313,397.995 -102.164,397.995C-110.402,397.995 -116.909,396.95 -121.685,394.861C-126.461,392.771 -130.132,390.204 -132.699,387.16C-135.266,384.115 -136.998,380.891 -137.893,377.489C-138.789,374.086 -139.475,371.011 -139.953,368.265C-141.027,362.176 -142.161,354.833 -143.355,346.237C-144.549,337.64 -145.714,328.417 -146.848,318.567C-147.982,308.716 -149.086,298.568 -150.161,288.121C-151.236,277.673 -152.221,267.465 -153.116,257.495C-154.012,247.526 -154.817,238.123 -155.534,229.288C-156.25,220.453 -156.847,212.752 -157.325,206.185C-160.907,212.035 -164.22,217.677 -167.265,223.109C-170.309,228.542 -173.264,234.094 -176.13,239.765C-178.995,245.436 -181.92,251.376 -184.905,257.585C-187.89,263.794 -191.024,270.539 -194.308,277.823C-197.591,285.106 -201.173,293.105 -205.053,301.821C-208.934,310.537 -213.202,320.268 -217.859,331.014L-235.41,331.014Z" style="fill:rgb(253,252,248);fill-rule:nonzero;"/></g><g transform="matrix(1.51211,0,0,2.15187,672.04,-112.752)"><path d="M34.456,302.359C34.456,299.374 33.501,297.105 31.591,295.553C29.68,294.001 27.233,293.225 24.248,293.225C20.069,293.225 16.099,294.18 12.338,296.09C8.577,298.001 5.264,300.806 2.398,304.508C-0.467,308.209 -2.736,312.776 -4.407,318.208C-6.079,323.641 -6.914,329.939 -6.914,337.103C-6.914,344.028 -6.407,349.759 -5.392,354.296C-4.377,358.833 -3.004,362.445 -1.273,365.131C0.458,367.817 2.458,369.698 4.727,370.772C6.995,371.847 9.383,372.384 11.89,372.384C14.995,372.384 17.92,371.578 20.666,369.967C23.412,368.355 25.8,366.295 27.83,363.788C29.86,361.28 31.471,358.475 32.665,355.37C33.859,352.266 34.456,349.162 34.456,346.058L34.456,302.359ZM5.98,223.915C1.921,223.915 -1.84,224.393 -5.303,225.348C-8.765,226.303 -11.75,227.497 -14.257,228.93C-16.765,230.363 -18.735,231.945 -20.167,233.676C-21.6,235.407 -22.317,237.049 -22.317,238.601C-22.317,240.392 -21.391,241.675 -19.541,242.452C-17.69,243.228 -15.63,244.123 -13.362,245.138C-11.093,246.153 -9.034,247.586 -7.183,249.436C-5.332,251.287 -4.407,254.123 -4.407,257.943C-4.407,260.451 -4.915,262.749 -5.929,264.838C-6.944,266.928 -8.317,268.778 -10.049,270.39C-11.78,272.002 -13.81,273.256 -16.138,274.151C-18.466,275.047 -20.884,275.494 -23.391,275.494C-30.077,275.494 -35.48,273.226 -39.599,268.689C-43.718,264.152 -45.778,258.122 -45.778,250.6C-45.778,243.317 -43.867,237.079 -40.047,231.885C-36.226,226.691 -31.241,222.423 -25.092,219.08C-18.944,215.737 -11.989,213.259 -4.228,211.647C3.533,210.036 11.293,209.23 19.054,209.23C28.367,209.23 37.262,210.244 45.739,212.274C54.216,214.304 61.708,217.528 68.216,221.945C74.723,226.363 79.916,231.975 83.797,238.78C87.677,245.586 89.617,253.824 89.617,263.495L89.617,364.683C89.617,365.758 89.677,366.952 89.796,368.265C89.916,369.579 90.214,370.772 90.692,371.847C91.169,372.922 91.886,373.817 92.841,374.533C93.796,375.25 95.169,375.608 96.96,375.608C99.109,375.608 101.109,374.802 102.96,373.19C104.81,371.578 106.452,369.937 107.885,368.265L112.362,372.026C110.571,374.533 108.422,377.28 105.915,380.264C103.408,383.249 100.363,386.055 96.781,388.682C93.199,391.309 89.02,393.517 84.244,395.308C79.469,397.099 74.036,397.995 67.947,397.995C60.425,397.995 53.739,395.756 47.888,391.279C42.038,386.801 38.217,379.906 36.426,370.593C32.606,375.727 28.636,380.026 24.517,383.488C20.397,386.951 16.189,389.756 11.89,391.906C7.592,394.055 3.264,395.607 -1.094,396.562C-5.452,397.517 -9.84,397.995 -14.257,397.995C-19.988,397.995 -25.54,397.099 -30.913,395.308C-36.286,393.517 -41.092,390.682 -45.33,386.801C-49.569,382.921 -52.971,377.877 -55.538,371.668C-58.105,365.459 -59.389,357.878 -59.389,348.923C-59.389,338.058 -57.24,329.163 -52.942,322.238C-48.643,315.313 -43.002,309.492 -36.017,304.776C-29.033,300.06 -21.093,296.031 -12.198,292.687C-3.303,289.344 5.801,285.822 15.114,282.121C22.039,279.375 27.084,275.285 30.248,269.853C33.412,264.42 34.994,258.839 34.994,253.108C34.994,244.272 32.397,237.198 27.203,231.885C22.009,226.572 14.935,223.915 5.98,223.915Z" style="fill:rgb(253,252,248);fill-rule:nonzero;"/></g><g transform="matrix(1.51211,0,0,2.15187,672.04,-112.752)"><path d="M177.166,247.018C181.703,240.093 186.538,233.825 191.672,228.214C193.821,225.826 196.15,223.497 198.657,221.229C201.164,218.96 203.761,216.931 206.448,215.14C209.134,213.349 211.91,211.916 214.775,210.841C217.641,209.767 220.506,209.23 223.372,209.23C229.461,209.23 234.237,211.05 237.699,214.692C241.162,218.334 242.893,223.438 242.893,230.005C242.893,234.064 242.565,237.974 241.908,241.735C241.251,245.496 239.968,250.063 238.058,255.436L233.043,255.436C232.327,251.735 230.655,248.66 228.028,246.213C225.402,243.765 221.581,242.541 216.566,242.541C212.865,242.541 209.223,243.228 205.642,244.601C202.06,245.974 198.567,247.675 195.165,249.705C191.762,251.735 188.538,253.943 185.494,256.331C182.449,258.719 179.673,260.988 177.166,263.137L177.166,379.369C177.166,380.921 176.927,382.772 176.449,384.921C175.972,387.07 174.808,389.1 172.957,391.01C171.106,392.92 168.36,394.562 164.719,395.935C161.077,397.308 156.092,397.995 149.764,397.995C143.436,397.995 138.451,397.249 134.81,395.756C131.168,394.264 128.392,392.503 126.482,390.473C124.572,388.443 123.378,386.354 122.9,384.205C122.423,382.055 122.184,380.324 122.184,379.011L122.184,240.75C122.184,237.288 121.378,234.273 119.766,231.706C118.154,229.139 115.438,227.855 111.617,227.855C109.587,227.855 107.856,228.214 106.423,228.93C104.991,229.646 103.439,230.661 101.767,231.975L98.006,227.497C100.752,225.229 103.827,222.99 107.229,220.781C110.632,218.572 114.304,216.632 118.244,214.961C122.184,213.289 126.422,211.916 130.959,210.841C135.496,209.767 140.272,209.23 145.287,209.23C150.421,209.23 154.809,209.916 158.45,211.289C162.092,212.662 165.077,214.453 167.405,216.662C169.733,218.871 171.554,221.348 172.867,224.094C174.181,226.841 175.166,229.616 175.822,232.422C176.479,235.228 176.867,237.915 176.987,240.482C177.106,243.049 177.166,245.228 177.166,247.018Z" style="fill:rgb(253,252,248);fill-rule:nonzero;"/></g><g transform="matrix(1.51211,0,0,2.15187,672.04,-112.752)"><path d="M234.089,282.479C234.089,270.301 236.208,259.645 240.447,250.511C244.685,241.377 250.386,233.736 257.55,227.587C264.714,221.438 273.012,216.841 282.444,213.797C291.877,210.752 301.786,209.23 312.174,209.23C322.561,209.23 332.412,210.603 341.724,213.349C351.037,216.095 359.276,220.333 366.439,226.064C368.708,222.602 370.559,218.96 371.991,215.14C373.424,211.319 374.14,207.498 374.14,203.678C374.14,198.663 372.797,194.663 370.111,191.678C367.424,188.693 363.992,187.201 359.813,187.201L359.813,182.007C362.44,181.172 364.768,180.425 366.798,179.769C368.827,179.112 370.678,178.605 372.35,178.246C374.021,177.888 375.693,177.62 377.364,177.44C379.036,177.261 380.886,177.172 382.916,177.172C388.528,177.172 392.826,178.903 395.811,182.366C398.796,185.828 400.288,190.604 400.288,196.693C400.288,200.275 399.452,203.827 397.781,207.349C396.109,210.871 394.02,214.244 391.513,217.468C389.005,220.692 386.229,223.736 383.185,226.602C380.14,229.467 377.245,231.975 374.499,234.124C379.513,239.855 383.394,246.541 386.14,254.182C388.886,261.824 390.259,270.539 390.259,280.33C390.259,292.628 388.14,303.493 383.901,312.925C379.663,322.357 373.961,330.297 366.798,336.745C359.634,343.192 351.336,348.057 341.904,351.341C332.471,354.624 322.561,356.266 312.174,356.266C306.085,356.266 300.115,355.729 294.265,354.654C288.414,353.579 282.922,352.027 277.788,349.998C275.878,351.43 274.236,353.221 272.863,355.37C271.49,357.52 270.803,359.907 270.803,362.534C270.803,366.952 272.714,370.235 276.534,372.384C280.355,374.533 285.429,376.086 291.757,377.041C298.085,377.996 305.249,378.593 313.249,378.832C321.248,379.071 329.457,379.459 337.874,379.996C346.291,380.533 354.5,381.548 362.499,383.04C370.499,384.533 377.663,386.98 383.991,390.383C390.319,393.786 395.393,398.413 399.214,404.263C403.034,410.113 404.945,417.695 404.945,427.008C404.945,433.814 403.512,439.933 400.646,445.365C397.781,450.798 393.93,455.574 389.095,459.693C384.259,463.812 378.648,467.334 372.26,470.259C365.872,473.184 359.126,475.572 352.022,477.423C344.918,479.274 337.695,480.617 330.352,481.453C323.009,482.288 315.995,482.706 309.308,482.706C297.13,482.706 286.175,482.079 276.445,480.826C266.714,479.572 258.446,477.632 251.64,475.005C244.835,472.379 239.581,468.976 235.88,464.797C232.179,460.618 230.328,455.603 230.328,449.753C230.328,445.574 231.283,441.724 233.193,438.201C235.104,434.679 237.641,431.456 240.805,428.53C243.969,425.605 247.521,422.978 251.461,420.65C255.401,418.322 259.401,416.143 263.46,414.113C257.491,411.606 252.506,407.815 248.506,402.741C244.506,397.666 242.506,390.95 242.506,382.593C242.506,378.175 243.282,374.086 244.835,370.325C246.387,366.564 248.387,363.101 250.834,359.937C253.282,356.773 255.968,353.908 258.893,351.341C261.819,348.774 264.654,346.595 267.4,344.804C262.505,341.938 257.998,338.446 253.879,334.327C249.76,330.208 246.237,325.551 243.312,320.357C240.387,315.164 238.119,309.403 236.507,303.075C234.895,296.747 234.089,289.882 234.089,282.479ZM336.352,281.046C336.352,274.121 335.993,267.375 335.277,260.809C334.561,254.242 333.307,248.392 331.516,243.257C329.725,238.123 327.278,233.974 324.173,230.81C321.069,227.646 317.069,226.064 312.174,226.064C307.279,226.064 303.279,227.706 300.175,230.99C297.07,234.273 294.623,238.571 292.832,243.884C291.041,249.197 289.787,255.227 289.071,261.973C288.354,268.719 287.996,275.554 287.996,282.479C287.996,289.523 288.354,296.448 289.071,303.254C289.787,310.06 291.041,316.149 292.832,321.522C294.623,326.894 297.07,331.223 300.175,334.506C303.279,337.789 307.279,339.431 312.174,339.431C317.069,339.431 321.069,337.7 324.173,334.237C327.278,330.775 329.725,326.268 331.516,320.716C333.307,315.164 334.561,308.925 335.277,302C335.993,295.075 336.352,288.091 336.352,281.046ZM363.574,441.336C363.574,437.515 362.081,434.381 359.097,431.933C356.112,429.485 352.201,427.515 347.366,426.023C342.53,424.531 337.038,423.396 330.889,422.62C324.74,421.844 318.502,421.247 312.174,420.829C305.846,420.411 299.697,420.023 293.727,419.665C287.757,419.307 282.564,418.829 278.146,418.232C275.639,420.023 273.221,421.964 270.893,424.053C268.565,426.142 266.535,428.351 264.804,430.679C263.072,433.008 261.669,435.455 260.595,438.022C259.52,440.589 258.983,443.186 258.983,445.813C258.983,450.35 260.296,454.141 262.923,457.185C265.55,460.23 269.102,462.648 273.579,464.439C278.057,466.23 283.25,467.483 289.16,468.2C295.07,468.916 301.309,469.274 307.876,469.274C316.592,469.274 324.412,468.528 331.337,467.036C338.262,465.543 344.112,463.513 348.888,460.946C353.664,458.379 357.306,455.424 359.813,452.081C362.32,448.738 363.574,445.156 363.574,441.336Z" style="fill:rgb(253,252,248);fill-rule:nonzero;"/></g><g transform="matrix(1.51211,0,0,2.15187,672.04,-112.752)"><path d="M489.269,302.359C489.269,299.374 488.314,297.105 486.404,295.553C484.494,294.001 482.046,293.225 479.061,293.225C474.882,293.225 470.912,294.18 467.151,296.09C463.39,298.001 460.077,300.806 457.212,304.508C454.346,308.209 452.077,312.776 450.406,318.208C448.734,323.641 447.899,329.939 447.899,337.103C447.899,344.028 448.406,349.759 449.421,354.296C450.436,358.833 451.809,362.445 453.54,365.131C455.271,367.817 457.271,369.698 459.54,370.772C461.808,371.847 464.196,372.384 466.703,372.384C469.808,372.384 472.733,371.578 475.479,369.967C478.225,368.355 480.613,366.295 482.643,363.788C484.673,361.28 486.284,358.475 487.478,355.37C488.672,352.266 489.269,349.162 489.269,346.058L489.269,302.359ZM460.793,223.915C456.734,223.915 452.973,224.393 449.51,225.348C446.048,226.303 443.063,227.497 440.556,228.93C438.048,230.363 436.078,231.945 434.646,233.676C433.213,235.407 432.497,237.049 432.497,238.601C432.497,240.392 433.422,241.675 435.272,242.452C437.123,243.228 439.183,244.123 441.451,245.138C443.72,246.153 445.779,247.586 447.63,249.436C449.481,251.287 450.406,254.123 450.406,257.943C450.406,260.451 449.898,262.749 448.884,264.838C447.869,266.928 446.496,268.778 444.764,270.39C443.033,272.002 441.003,273.256 438.675,274.151C436.347,275.047 433.929,275.494 431.422,275.494C424.736,275.494 419.333,273.226 415.214,268.689C411.095,264.152 409.035,258.122 409.035,250.6C409.035,243.317 410.946,237.079 414.766,231.885C418.587,226.691 423.572,222.423 429.721,219.08C435.869,215.737 442.824,213.259 450.585,211.647C458.346,210.036 466.107,209.23 473.867,209.23C483.18,209.23 492.075,210.244 500.552,212.274C509.029,214.304 516.521,217.528 523.029,221.945C529.536,226.363 534.729,231.975 538.61,238.78C542.49,245.586 544.43,253.824 544.43,263.495L544.43,364.683C544.43,365.758 544.49,366.952 544.609,368.265C544.729,369.579 545.027,370.772 545.505,371.847C545.982,372.922 546.699,373.817 547.654,374.533C548.609,375.25 549.982,375.608 551.773,375.608C553.922,375.608 555.922,374.802 557.773,373.19C559.623,371.578 561.265,369.937 562.698,368.265L567.175,372.026C565.384,374.533 563.235,377.28 560.728,380.264C558.221,383.249 555.176,386.055 551.594,388.682C548.012,391.309 543.833,393.517 539.057,395.308C534.282,397.099 528.849,397.995 522.76,397.995C515.238,397.995 508.552,395.756 502.701,391.279C496.851,386.801 493.03,379.906 491.239,370.593C487.419,375.727 483.449,380.026 479.33,383.488C475.21,386.951 471.002,389.756 466.703,391.906C462.405,394.055 458.077,395.607 453.719,396.562C449.361,397.517 444.973,397.995 440.556,397.995C434.825,397.995 429.273,397.099 423.9,395.308C418.527,393.517 413.721,390.682 409.483,386.801C405.244,382.921 401.842,377.877 399.275,371.668C396.708,365.459 395.424,357.878 395.424,348.923C395.424,338.058 397.573,329.163 401.871,322.238C406.17,315.313 411.811,309.492 418.796,304.776C425.78,300.06 433.72,296.031 442.615,292.687C451.51,289.344 460.614,285.822 469.927,282.121C476.852,279.375 481.897,275.285 485.061,269.853C488.225,264.42 489.807,258.839 489.807,253.108C489.807,244.272 487.21,237.198 482.016,231.885C476.822,226.572 469.748,223.915 460.793,223.915Z" style="fill:rgb(253,252,248);fill-rule:nonzero;"/></g><g transform="matrix(1.51211,0,0,2.15187,672.04,-112.752)"><path d="M631.979,247.018C636.516,240.093 641.351,233.825 646.485,228.214C648.634,225.826 650.963,223.497 653.47,221.229C655.977,218.96 658.574,216.931 661.261,215.14C663.947,213.349 666.723,211.916 669.588,210.841C672.454,209.767 675.319,209.23 678.185,209.23C684.274,209.23 689.05,211.05 692.512,214.692C695.975,218.334 697.706,223.438 697.706,230.005C697.706,234.064 697.378,237.974 696.721,241.735C696.065,245.496 694.781,250.063 692.871,255.436L687.856,255.436C687.14,251.735 685.468,248.66 682.841,246.213C680.215,243.765 676.394,242.541 671.379,242.541C667.678,242.541 664.037,243.228 660.455,244.601C656.873,245.974 653.38,247.675 649.978,249.705C646.575,251.735 643.351,253.943 640.307,256.331C637.262,258.719 634.486,260.988 631.979,263.137L631.979,379.369C631.979,380.921 631.74,382.772 631.262,384.921C630.785,387.07 629.621,389.1 627.77,391.01C625.919,392.92 623.173,394.562 619.532,395.935C615.89,397.308 610.905,397.995 604.577,397.995C598.249,397.995 593.265,397.249 589.623,395.756C585.981,394.264 583.205,392.503 581.295,390.473C579.385,388.443 578.191,386.354 577.713,384.205C577.236,382.055 576.997,380.324 576.997,379.011L576.997,240.75C576.997,237.288 576.191,234.273 574.579,231.706C572.967,229.139 570.251,227.855 566.43,227.855C564.401,227.855 562.669,228.214 561.237,228.93C559.804,229.646 558.252,230.661 556.58,231.975L552.819,227.497C555.565,225.229 558.64,222.99 562.042,220.781C565.445,218.572 569.117,216.632 573.057,214.961C576.997,213.289 581.235,211.916 585.772,210.841C590.309,209.767 595.085,209.23 600.1,209.23C605.234,209.23 609.622,209.916 613.263,211.289C616.905,212.662 619.89,214.453 622.218,216.662C624.546,218.871 626.367,221.348 627.68,224.094C628.994,226.841 629.979,229.616 630.635,232.422C631.292,235.228 631.68,237.915 631.8,240.482C631.919,243.049 631.979,245.228 631.979,247.018Z" style="fill:rgb(253,252,248);fill-rule:nonzero;"/></g><g transform="matrix(1.51211,0,0,2.15187,672.04,-112.752)"><path d="M742.809,312.925C742.809,316.746 743.376,320.895 744.511,325.372C745.645,329.849 747.287,334.357 749.436,338.894C751.585,343.431 754.241,347.759 757.405,351.878C760.569,355.997 764.211,359.669 768.33,362.892C772.449,366.116 777.016,368.683 782.031,370.593C787.046,372.504 792.538,373.459 798.508,373.459C802.686,373.459 806.567,372.981 810.149,372.026C813.731,371.071 817.074,369.758 820.178,368.086C823.282,366.415 826.267,364.474 829.133,362.266C831.998,360.057 834.864,357.699 837.729,355.191L842.206,359.49C839.46,363.191 835.938,367.25 831.64,371.668C827.342,376.086 822.148,380.235 816.059,384.115C809.97,387.995 802.865,391.219 794.747,393.786C786.628,396.353 777.374,397.637 766.987,397.637C756.6,397.637 746.481,395.756 736.631,391.995C726.78,388.234 718.035,382.593 710.393,375.071C702.752,367.549 696.633,358.176 692.036,346.953C687.439,335.73 685.141,322.596 685.141,307.552C685.141,296.687 686.514,286.718 689.26,277.644C692.006,268.569 695.737,260.391 700.454,253.108C705.17,245.825 710.662,239.437 716.93,233.945C723.198,228.452 729.795,223.885 736.72,220.244C743.645,216.602 750.719,213.856 757.943,212.006C765.166,210.155 772.121,209.23 778.807,209.23C787.642,209.23 795.344,210.185 801.91,212.095C808.477,214.005 813.939,216.572 818.297,219.796C822.655,223.02 825.909,226.751 828.058,230.99C830.207,235.228 831.282,239.676 831.282,244.332C831.282,249.944 829.67,254.988 826.446,259.466C823.223,263.943 818.924,267.853 813.551,271.196L742.809,312.925ZM778.807,276.569C780.359,275.614 781.643,274.689 782.658,273.793C783.673,272.898 784.478,271.823 785.075,270.569C785.672,269.316 786.12,267.764 786.419,265.913C786.717,264.062 786.866,261.764 786.866,259.018C786.866,256.033 786.538,252.72 785.881,249.078C785.225,245.436 784.12,242.004 782.568,238.78C781.016,235.556 779.046,232.87 776.658,230.721C774.27,228.572 771.405,227.497 768.062,227.497C763.763,227.497 760.092,228.781 757.047,231.348C754.003,233.915 751.495,237.228 749.525,241.287C747.555,245.347 746.003,249.974 744.869,255.167C743.735,260.361 742.869,265.585 742.272,270.838C741.675,276.091 741.317,281.136 741.197,285.971C741.078,290.807 741.018,294.896 741.018,298.239L778.807,276.569Z" style="fill:rgb(253,252,248);fill-rule:nonzero;"/></g><g transform="matrix(1.51211,0,0,2.15187,672.04,-112.752)"><path d="M907.905,224.632L907.905,356.982C907.905,363.31 909.099,367.698 911.487,370.146C913.875,372.593 917.159,373.817 921.337,373.817C924.561,373.817 927.427,372.922 929.934,371.131C932.441,369.34 934.59,367.31 936.381,365.041C938.53,362.534 940.381,359.609 941.933,356.266L947.485,358.773C945.694,362.594 943.575,366.773 941.127,371.31C938.68,375.847 935.426,380.056 931.367,383.936C927.307,387.816 922.203,391.07 916.054,393.697C909.905,396.323 902.174,397.637 892.861,397.637C887.608,397.637 882.564,396.861 877.728,395.308C872.892,393.756 868.594,391.309 864.833,387.966C861.072,384.622 858.058,380.444 855.789,375.429C853.52,370.414 852.386,364.385 852.386,357.34L852.386,224.632L832.328,224.632L832.328,211.737C835.671,211.737 840.327,210.871 846.297,209.14C852.267,207.409 858.386,204.513 864.654,200.454C870.922,196.395 876.743,190.962 882.116,184.156C887.489,177.351 891.309,168.933 893.578,158.904L907.905,158.904L907.905,211.737L937.098,211.737C946.649,211.737 951.425,210.125 951.425,206.901C951.425,205.707 950.828,204.902 949.634,204.484C948.44,204.066 947.097,203.528 945.605,202.872C944.112,202.215 942.769,201.29 941.575,200.096C940.381,198.902 939.784,196.932 939.784,194.186C939.784,190.843 940.829,188.216 942.918,186.306C945.008,184.395 947.724,183.44 951.067,183.44C953.216,183.44 955.097,183.888 956.708,184.783C958.32,185.679 959.664,186.873 960.738,188.365C961.813,189.858 962.619,191.559 963.156,193.469C963.693,195.38 963.962,197.29 963.962,199.2C963.962,206.961 961.723,213.14 957.246,217.737C952.768,222.333 945.575,224.632 935.665,224.632L907.905,224.632Z" style="fill:rgb(253,252,248);fill-rule:nonzero;"/></g><g transform="matrix(1.51211,0,0,2.15187,1080.57,-194.77)"><path d="M-184.293,468.216C-151.817,468.216 -127.013,473.976 -109.879,485.498C-92.746,497.02 -84.179,513.526 -84.179,535.018C-84.179,545.524 -85.403,554.509 -87.851,561.971C-90.298,569.434 -93.701,575.762 -98.059,580.955C-102.417,586.149 -107.611,590.447 -113.64,593.85C-119.67,597.253 -126.207,600.148 -133.251,602.536C-128.356,603.849 -123.431,607.372 -118.476,613.103C-113.521,618.834 -108.476,625.908 -103.342,634.325C-98.208,642.743 -93.014,652.085 -87.761,662.354C-82.508,672.622 -77.224,683.009 -71.911,693.516C-66.598,704.023 -61.225,714.231 -55.793,724.141C-50.36,734.051 -44.928,742.886 -39.495,750.647C-34.063,758.408 -28.57,764.616 -23.019,769.273C-17.467,773.929 -11.945,776.257 -6.452,776.257C-4.064,776.257 -1.706,775.78 0.622,774.825C2.95,773.869 4.771,772.914 6.084,771.959L9.845,778.944C7.457,780.257 4.532,781.72 1.07,783.332C-2.393,784.943 -6.452,786.466 -11.109,787.898C-15.765,789.331 -20.989,790.555 -26.78,791.57C-32.57,792.585 -38.988,793.092 -46.032,793.092C-57.614,793.092 -68.061,789.898 -77.374,783.511C-86.686,777.123 -94.686,768.138 -101.372,756.557C-108.178,744.617 -114.864,732.081 -121.431,718.947C-127.998,705.814 -134.534,692.68 -141.042,679.547C-147.549,666.413 -154.056,653.578 -160.563,641.041C-167.07,628.505 -173.607,616.744 -180.174,605.76L-178.741,598.417C-171.696,600.208 -165.577,599.79 -160.384,597.163C-155.19,594.537 -150.922,590.268 -147.578,584.358C-144.235,578.448 -141.758,571.195 -140.146,562.598C-138.534,554.002 -137.728,544.689 -137.728,534.659C-137.728,527.496 -138.504,520.78 -140.057,514.511C-141.609,508.243 -143.788,502.751 -146.593,498.035C-149.399,493.319 -152.772,489.617 -156.712,486.931C-160.652,484.244 -165.07,482.901 -169.965,482.901C-173.786,482.901 -176.92,483.468 -179.368,484.603C-181.815,485.737 -183.755,487.17 -185.188,488.901C-186.621,490.632 -187.606,492.483 -188.143,494.453C-188.681,496.423 -188.949,498.303 -188.949,500.094L-188.949,712.5C-188.949,721.693 -191.367,728.38 -196.203,732.558C-201.038,736.737 -208.411,738.827 -218.321,738.827C-228.35,738.827 -235.752,736.737 -240.528,732.558C-245.304,728.38 -247.692,721.693 -247.692,712.5L-247.692,498.303C-247.692,491.737 -252.229,488.453 -261.303,488.453C-267.87,488.453 -274.526,489.438 -281.272,491.408C-288.018,493.378 -294.107,496.065 -299.54,499.467C-304.972,502.87 -309.42,506.93 -312.882,511.646C-316.345,516.362 -318.076,521.466 -318.076,526.958C-318.076,530.779 -317.569,533.824 -316.554,536.092C-315.539,538.361 -314.375,540.062 -313.061,541.196C-311.748,542.331 -310.405,543.047 -309.032,543.346C-307.659,543.644 -306.674,543.793 -306.077,543.793C-303.092,543.793 -300.644,543.286 -298.734,542.271C-296.824,541.256 -295.092,540.182 -293.54,539.047C-291.988,537.913 -290.525,536.838 -289.152,535.824C-287.779,534.809 -286.197,534.301 -284.406,534.301C-282.974,534.301 -281.451,534.63 -279.839,535.286C-278.228,535.943 -276.735,536.988 -275.362,538.42C-273.989,539.853 -272.825,541.734 -271.87,544.062C-270.915,546.39 -270.437,549.226 -270.437,552.569C-270.437,557.345 -271.362,561.464 -273.213,564.926C-275.064,568.389 -277.452,571.284 -280.377,573.612C-283.302,575.941 -286.645,577.672 -290.406,578.806C-294.167,579.94 -297.898,580.508 -301.599,580.508C-307.33,580.508 -312.494,579.523 -317.091,577.552C-321.688,575.582 -325.598,572.866 -328.822,569.404C-332.045,565.941 -334.493,561.882 -336.165,557.225C-337.836,552.569 -338.672,547.614 -338.672,542.36C-338.672,532.451 -336.821,523.705 -333.12,516.123C-329.419,508.542 -324.195,502.005 -317.449,496.512C-310.703,491.02 -302.614,486.453 -293.182,482.812C-283.75,479.17 -273.303,476.275 -261.841,474.126C-250.378,471.977 -238.111,470.454 -225.037,469.559C-211.963,468.663 -198.382,468.216 -184.293,468.216Z" style="fill:rgb(253,252,248);fill-rule:nonzero;"/></g><g transform="matrix(1.51211,0,0,2.15187,1080.57,-194.77)"><path d="M-54.478,644.265C-54.478,628.624 -52.21,614.923 -47.673,603.163C-43.136,591.402 -37.076,581.582 -29.495,573.702C-21.913,565.822 -13.107,559.912 -3.078,555.972C6.951,552.032 17.458,550.062 28.442,550.062C39.427,550.062 49.934,551.882 59.963,555.524C69.992,559.165 78.798,564.747 86.379,572.269C93.961,579.791 100.02,589.313 104.557,600.835C109.094,612.356 111.363,625.997 111.363,641.758C111.363,657.399 109.094,671.249 104.557,683.308C100.02,695.367 93.961,705.515 86.379,713.754C78.798,721.992 69.992,728.23 59.963,732.469C49.934,736.707 39.427,738.827 28.442,738.827C17.458,738.827 6.951,736.827 -3.078,732.827C-13.107,728.827 -21.913,722.887 -29.495,715.007C-37.076,707.127 -43.136,697.277 -47.673,685.457C-52.21,673.636 -54.478,659.906 -54.478,644.265ZM55.665,642.474C55.665,632.922 55.336,623.699 54.68,614.804C54.023,605.909 52.739,597.999 50.829,591.074C48.919,584.149 46.173,578.627 42.591,574.508C39.009,570.389 34.293,568.329 28.442,568.329C22.592,568.329 17.876,570.508 14.294,574.866C10.712,579.224 7.966,584.955 6.056,592.059C4.145,599.163 2.892,607.252 2.295,616.326C1.698,625.4 1.399,634.713 1.399,644.265C1.399,653.817 1.698,663.159 2.295,672.293C2.892,681.427 4.145,689.576 6.056,696.74C7.966,703.903 10.712,709.664 14.294,714.022C17.876,718.38 22.592,720.559 28.442,720.559C34.293,720.559 39.009,718.291 42.591,713.754C46.173,709.216 48.919,703.247 50.829,695.844C52.739,688.442 54.023,680.084 54.68,670.771C55.336,661.458 55.665,652.026 55.665,642.474Z" style="fill:rgb(253,252,248);fill-rule:nonzero;"/></g><g transform="matrix(1.51211,0,0,2.15187,1080.57,-194.77)"><path d="M227.745,638.713L227.745,630.743C227.745,626.744 227.626,622.147 227.387,616.953C227.148,611.759 226.731,606.237 226.134,600.387C225.537,594.537 224.581,589.104 223.268,584.089C220.403,580.388 217.209,577.075 213.687,574.15C210.164,571.224 205.657,569.762 200.165,569.762C190.852,569.762 184.017,575.851 179.659,588.029C175.301,600.208 173.122,619.072 173.122,644.623C173.122,655.846 173.629,666.115 174.644,675.427C175.659,684.74 177.211,692.74 179.3,699.426C181.39,706.112 184.076,711.306 187.36,715.007C190.643,718.708 194.553,720.559 199.09,720.559C218.194,720.559 227.745,693.277 227.745,638.713ZM225.596,559.912C223.328,547.972 220.164,536.838 216.104,526.511C212.045,516.183 207.179,507.258 201.508,499.736C195.837,492.214 189.389,486.304 182.166,482.006C174.943,477.708 167.152,475.558 158.794,475.558C154.018,475.558 149.69,476.155 145.81,477.349C141.929,478.543 138.557,479.946 135.691,481.558C132.826,483.17 130.467,484.722 128.617,486.214C126.766,487.707 125.423,488.811 124.587,489.528L119.931,483.259C122.796,479.558 126.289,476.096 130.408,472.872C134.527,469.648 139.034,466.902 143.929,464.634C148.825,462.365 153.988,460.574 159.421,459.261C164.854,457.947 170.256,457.291 175.629,457.291C193.3,457.291 208.821,461.141 222.193,468.842C235.566,476.543 246.729,487.438 255.684,501.527C264.639,515.616 271.385,532.63 275.922,552.569C280.459,572.508 282.727,594.656 282.727,619.013C282.727,638.713 280.727,656.026 276.728,670.95C272.728,685.875 267.027,698.381 259.624,708.47C252.222,718.559 243.237,726.141 232.67,731.215C222.104,736.29 210.194,738.827 196.941,738.827C187.748,738.827 178.405,737.185 168.913,733.902C159.421,730.618 150.824,725.275 143.123,717.873C135.422,710.47 129.124,700.769 124.229,688.77C119.334,676.771 116.886,662.055 116.886,644.623C116.886,629.579 119.005,616.207 123.244,604.506C127.483,592.805 133.184,582.925 140.347,574.866C147.511,566.807 155.809,560.658 165.242,556.419C174.674,552.181 184.643,550.062 195.15,550.062C199.21,550.062 202.851,550.39 206.075,551.047C209.299,551.703 212.105,552.509 214.492,553.464C216.88,554.419 218.97,555.464 220.761,556.598C222.552,557.733 224.164,558.837 225.596,559.912Z" style="fill:rgb(253,252,248);fill-rule:nonzero;"/></g><g transform="matrix(1.51211,0,0,2.15187,1080.57,-194.77)"><path d="M292.728,623.311C292.728,611.133 294.847,600.477 299.086,591.343C303.324,582.209 309.025,574.568 316.189,568.419C323.353,562.27 331.651,557.673 341.083,554.628C350.516,551.584 360.425,550.062 370.813,550.062C381.2,550.062 391.051,551.435 400.363,554.181C409.676,556.927 417.915,561.165 425.078,566.896C427.347,563.434 429.198,559.792 430.63,555.972C432.063,552.151 432.779,548.33 432.779,544.51C432.779,539.495 431.436,535.495 428.75,532.51C426.063,529.525 422.631,528.033 418.452,528.033L418.452,522.839C421.079,522.003 423.407,521.257 425.437,520.601C427.466,519.944 429.317,519.436 430.989,519.078C432.66,518.72 434.332,518.451 436.003,518.272C437.675,518.093 439.525,518.004 441.555,518.004C447.167,518.004 451.465,519.735 454.45,523.197C457.435,526.66 458.927,531.436 458.927,537.525C458.927,541.107 458.091,544.659 456.42,548.181C454.748,551.703 452.659,555.076 450.152,558.3C447.644,561.524 444.868,564.568 441.824,567.434C438.779,570.299 435.884,572.806 433.138,574.956C438.152,580.687 442.033,587.373 444.779,595.014C447.525,602.656 448.898,611.371 448.898,621.162C448.898,633.46 446.779,644.325 442.54,653.757C438.302,663.189 432.6,671.129 425.437,677.577C418.273,684.024 409.975,688.889 400.543,692.173C391.11,695.456 381.2,697.098 370.813,697.098C364.724,697.098 358.754,696.561 352.904,695.486C347.053,694.411 341.561,692.859 336.427,690.829C334.517,692.262 332.875,694.053 331.502,696.202C330.129,698.351 329.442,700.739 329.442,703.366C329.442,707.784 331.353,711.067 335.173,713.216C338.994,715.365 344.068,716.918 350.396,717.873C356.724,718.828 363.888,719.425 371.887,719.664C379.887,719.902 388.096,720.29 396.513,720.828C404.93,721.365 413.139,722.38 421.138,723.872C429.138,725.365 436.302,727.812 442.63,731.215C448.958,734.618 454.032,739.245 457.853,745.095C461.673,750.945 463.584,758.527 463.584,767.84C463.584,774.646 462.151,780.765 459.285,786.197C456.42,791.63 452.569,796.405 447.734,800.525C442.898,804.644 437.287,808.166 430.899,811.091C424.511,814.016 417.765,816.404 410.661,818.255C403.557,820.106 396.334,821.449 388.991,822.285C381.648,823.12 374.634,823.538 367.947,823.538C355.769,823.538 344.814,822.911 335.084,821.658C325.353,820.404 317.085,818.464 310.279,815.837C303.474,813.21 298.22,809.808 294.519,805.629C290.818,801.45 288.967,796.435 288.967,790.585C288.967,786.406 289.922,782.556 291.832,779.033C293.743,775.511 296.28,772.287 299.444,769.362C302.608,766.437 306.16,763.81 310.1,761.482C314.04,759.154 318.04,756.975 322.099,754.945C316.13,752.438 311.145,748.647 307.145,743.573C303.145,738.498 301.145,731.782 301.145,723.425C301.145,719.007 301.921,714.918 303.474,711.157C305.026,707.396 307.026,703.933 309.473,700.769C311.921,697.605 314.607,694.74 317.532,692.173C320.458,689.606 323.293,687.427 326.039,685.636C321.144,682.77 316.637,679.278 312.518,675.159C308.399,671.04 304.876,666.383 301.951,661.189C299.026,655.996 296.758,650.235 295.146,643.907C293.534,637.579 292.728,630.714 292.728,623.311ZM394.991,621.878C394.991,614.953 394.632,608.207 393.916,601.641C393.2,595.074 391.946,589.223 390.155,584.089C388.364,578.955 385.917,574.806 382.812,571.642C379.708,568.478 375.708,566.896 370.813,566.896C365.918,566.896 361.918,568.538 358.814,571.821C355.709,575.105 353.262,579.403 351.471,584.716C349.68,590.029 348.426,596.059 347.71,602.805C346.993,609.551 346.635,616.386 346.635,623.311C346.635,630.355 346.993,637.28 347.71,644.086C348.426,650.892 349.68,656.981 351.471,662.354C353.262,667.726 355.709,672.054 358.814,675.338C361.918,678.621 365.918,680.263 370.813,680.263C375.708,680.263 379.708,678.532 382.812,675.069C385.917,671.607 388.364,667.1 390.155,661.548C391.946,655.996 393.2,649.757 393.916,642.832C394.632,635.907 394.991,628.923 394.991,621.878ZM422.213,782.167C422.213,778.347 420.72,775.213 417.736,772.765C414.751,770.317 410.84,768.347 406.005,766.855C401.169,765.362 395.677,764.228 389.528,763.452C383.379,762.676 377.141,762.079 370.813,761.661C364.485,761.243 358.336,760.855 352.366,760.497C346.396,760.139 341.203,759.661 336.785,759.064C334.278,760.855 331.86,762.795 329.532,764.885C327.204,766.974 325.174,769.183 323.443,771.511C321.711,773.84 320.308,776.287 319.234,778.854C318.159,781.421 317.622,784.018 317.622,786.645C317.622,791.182 318.935,794.973 321.562,798.017C324.189,801.062 327.741,803.48 332.218,805.271C336.696,807.062 341.889,808.315 347.799,809.032C353.709,809.748 359.948,810.106 366.515,810.106C375.231,810.106 383.051,809.36 389.976,807.867C396.901,806.375 402.751,804.345 407.527,801.778C412.303,799.211 415.945,796.256 418.452,792.913C420.959,789.57 422.213,785.988 422.213,782.167Z" style="fill:rgb(253,252,248);fill-rule:nonzero;"/></g><g transform="matrix(1.51211,0,0,2.15187,1080.57,-194.77)"><path d="M517.104,653.757C517.104,657.578 517.671,661.727 518.806,666.204C519.94,670.681 521.581,675.189 523.731,679.726C525.88,684.263 528.536,688.591 531.7,692.71C534.864,696.829 538.506,700.501 542.625,703.724C546.744,706.948 551.311,709.515 556.326,711.425C561.34,713.336 566.833,714.291 572.802,714.291C576.981,714.291 580.862,713.813 584.444,712.858C588.025,711.903 591.368,710.59 594.473,708.918C597.577,707.246 600.562,705.306 603.427,703.097C606.293,700.889 609.159,698.531 612.024,696.023L616.501,700.321C613.755,704.023 610.233,708.082 605.935,712.5C601.637,716.918 596.443,721.067 590.354,724.947C584.264,728.827 577.16,732.051 569.041,734.618C560.922,737.185 551.669,738.469 541.282,738.469C530.894,738.469 520.776,736.588 510.925,732.827C501.075,729.066 492.329,723.425 484.688,715.903C477.047,708.381 470.928,699.008 466.331,687.785C461.734,676.562 459.436,663.428 459.436,648.384C459.436,637.519 460.809,627.55 463.555,618.475C466.301,609.401 470.032,601.223 474.748,593.94C479.465,586.656 484.957,580.269 491.225,574.777C497.493,569.284 504.09,564.717 511.015,561.076C517.94,557.434 525.014,554.688 532.238,552.837C539.461,550.987 546.416,550.062 553.102,550.062C561.937,550.062 569.638,551.017 576.205,552.927C582.772,554.837 588.234,557.404 592.592,560.628C596.95,563.852 600.204,567.583 602.353,571.821C604.502,576.06 605.577,580.508 605.577,585.164C605.577,590.776 603.965,595.82 600.741,600.297C597.517,604.775 593.219,608.685 587.846,612.028L517.104,653.757ZM553.102,617.401C554.654,616.446 555.938,615.52 556.953,614.625C557.967,613.729 558.773,612.655 559.37,611.401C559.967,610.148 560.415,608.595 560.714,606.745C561.012,604.894 561.161,602.596 561.161,599.85C561.161,596.865 560.833,593.552 560.176,589.91C559.52,586.268 558.415,582.836 556.863,579.612C555.311,576.388 553.341,573.702 550.953,571.553C548.565,569.404 545.7,568.329 542.356,568.329C538.058,568.329 534.387,569.613 531.342,572.18C528.298,574.747 525.79,578.06 523.82,582.119C521.85,586.179 520.298,590.805 519.164,595.999C518.029,601.193 517.164,606.416 516.567,611.67C515.97,616.923 515.612,621.968 515.492,626.803C515.373,631.639 515.313,635.728 515.313,639.071L553.102,617.401Z" style="fill:rgb(253,252,248);fill-rule:nonzero;"/></g><g transform="matrix(1.51211,0,0,2.15187,1080.57,-194.77)"><path d="M681.305,587.85C685.842,580.925 690.677,574.657 695.811,569.046C697.961,566.658 700.289,564.329 702.796,562.061C705.303,559.792 707.9,557.763 710.587,555.972C713.273,554.181 716.049,552.748 718.915,551.673C721.78,550.599 724.646,550.062 727.511,550.062C733.6,550.062 738.376,551.882 741.839,555.524C745.301,559.165 747.032,564.27 747.032,570.836C747.032,574.896 746.704,578.806 746.047,582.567C745.391,586.328 744.107,590.895 742.197,596.268L737.182,596.268C736.466,592.567 734.794,589.492 732.167,587.044C729.541,584.597 725.72,583.373 720.705,583.373C717.004,583.373 713.363,584.06 709.781,585.433C706.199,586.806 702.707,588.507 699.304,590.537C695.901,592.567 692.677,594.775 689.633,597.163C686.588,599.551 683.812,601.82 681.305,603.969L681.305,720.201C681.305,721.753 681.066,723.604 680.588,725.753C680.111,727.902 678.947,729.932 677.096,731.842C675.245,733.752 672.499,735.394 668.858,736.767C665.216,738.14 660.231,738.827 653.903,738.827C647.575,738.827 642.591,738.08 638.949,736.588C635.307,735.096 632.531,733.334 630.621,731.305C628.711,729.275 627.517,727.186 627.039,725.036C626.562,722.887 626.323,721.156 626.323,719.843L626.323,581.582C626.323,578.12 625.517,575.105 623.905,572.538C622.293,569.971 619.577,568.687 615.756,568.687C613.727,568.687 611.995,569.046 610.563,569.762C609.13,570.478 607.578,571.493 605.906,572.806L602.145,568.329C604.891,566.061 607.966,563.822 611.369,561.613C614.771,559.404 618.443,557.464 622.383,555.793C626.323,554.121 630.561,552.748 635.098,551.673C639.636,550.599 644.411,550.062 649.426,550.062C654.56,550.062 658.948,550.748 662.589,552.121C666.231,553.494 669.216,555.285 671.544,557.494C673.872,559.703 675.693,562.18 677.007,564.926C678.32,567.672 679.305,570.448 679.962,573.254C680.618,576.06 681.006,578.746 681.126,581.313C681.245,583.88 681.305,586.059 681.305,587.85Z" style="fill:rgb(253,252,248);fill-rule:nonzero;"/></g><g transform="matrix(1.51211,0,0,2.15187,1080.57,-194.77)"><path d="M810.761,564.389C808.015,564.389 805.418,564.747 802.971,565.464C800.523,566.18 798.344,567.344 796.434,568.956C794.523,570.568 793.031,572.598 791.956,575.045C790.882,577.493 790.344,580.388 790.344,583.731C790.344,588.388 792.046,593.014 795.449,597.611C798.851,602.208 803.09,606.984 808.164,611.939C813.239,616.893 818.731,622.028 824.641,627.341C830.551,632.654 836.043,638.265 841.118,644.175C846.192,650.086 850.43,656.384 853.833,663.07C857.236,669.756 858.937,676.92 858.937,684.561C858.937,693.158 857.475,700.799 854.55,707.485C851.624,714.171 847.446,719.843 842.013,724.499C836.581,729.156 830.014,732.708 822.313,735.155C814.612,737.603 806.045,738.827 796.613,738.827C788.374,738.827 780.912,737.663 774.226,735.334C767.54,733.006 761.6,730.141 756.406,726.738C751.212,723.335 746.765,719.723 743.064,715.903C739.362,712.082 736.497,708.62 734.467,705.515L740.735,701.038C742.288,702.829 744.258,704.769 746.645,706.858C749.033,708.948 751.69,710.888 754.615,712.679C757.54,714.47 760.674,715.933 764.018,717.067C767.361,718.201 770.763,718.768 774.226,718.768C782.822,718.768 789.867,716.709 795.359,712.589C800.851,708.47 803.597,702.351 803.597,694.232C803.597,689.695 802.105,685.009 799.12,680.173C796.135,675.338 792.374,670.353 787.837,665.219C783.3,660.085 778.405,654.772 773.151,649.28C767.898,643.787 763.003,638.116 758.466,632.266C753.929,626.415 750.168,620.386 747.183,614.177C744.198,607.969 742.705,601.521 742.705,594.835C742.705,587.313 744.228,580.746 747.272,575.135C750.317,569.523 754.376,564.867 759.451,561.165C764.525,557.464 770.316,554.688 776.823,552.837C783.33,550.987 790.046,550.062 796.971,550.062C804.97,550.062 812.254,550.778 818.82,552.211C825.387,553.643 831.029,555.822 835.745,558.748C840.461,561.673 844.102,565.344 846.67,569.762C849.237,574.18 850.52,579.314 850.52,585.164C850.52,589.701 849.028,593.641 846.043,596.984C843.058,600.327 838.879,601.999 833.506,601.999C828.372,601.999 824.462,600.894 821.775,598.686C819.089,596.477 817.746,593.462 817.746,589.641C817.746,587.134 818.373,585.164 819.626,583.731C820.88,582.298 822.283,581.134 823.835,580.239C825.387,579.343 826.79,578.567 828.044,577.911C829.297,577.254 829.924,576.388 829.924,575.314C829.924,571.971 828.133,569.314 824.551,567.344C820.97,565.374 816.373,564.389 810.761,564.389Z" style="fill:rgb(253,252,248);fill-rule:nonzero;"/></g></g></g></svg>